<mxfile host="app.diagrams.net" modified="2022-02-11T03:52:55.557Z" agent="5.0 (Windows NT 10.0; Win64; x64) AppleWebKit/537.36 (KHTML, like Gecko) Chrome/98.0.4758.82 Safari/537.36" etag="Vhh8qiSWhe8mbO9pSVPF" version="15.5.0" type="github">
  <diagram id="MRh8dGVyVaAy5fcaT8k8" name="Page-1">
    <mxGraphModel dx="1819" dy="625" grid="1" gridSize="10" guides="1" tooltips="1" connect="1" arrows="1" fold="1" page="1" pageScale="1" pageWidth="690" pageHeight="980" math="0" shadow="1">
      <root>
        <mxCell id="0" />
        <mxCell id="1" parent="0" />
        <mxCell id="U5Bep6wKffa9dp4y0ZwY-7" style="edgeStyle=orthogonalEdgeStyle;rounded=0;orthogonalLoop=1;jettySize=auto;html=1;entryX=0.5;entryY=0;entryDx=0;entryDy=0;fontSize=18;" edge="1" parent="1" source="6VSO4FYevupdve8CXnyG-3" target="B0KQMfuUmQHjHjp3Nqz5-2">
          <mxGeometry relative="1" as="geometry" />
        </mxCell>
        <mxCell id="6VSO4FYevupdve8CXnyG-3" value="" style="strokeWidth=1;html=1;shape=mxgraph.flowchart.decision;whiteSpace=wrap;shadow=0;sketch=0;fontSize=11;" parent="1" vertex="1">
          <mxGeometry x="200" y="848" width="150" height="100" as="geometry" />
        </mxCell>
        <mxCell id="U5Bep6wKffa9dp4y0ZwY-18" style="edgeStyle=orthogonalEdgeStyle;rounded=0;orthogonalLoop=1;jettySize=auto;html=1;entryX=0.5;entryY=0;entryDx=0;entryDy=0;fontSize=11;" edge="1" parent="1" source="B0KQMfuUmQHjHjp3Nqz5-1" target="U5Bep6wKffa9dp4y0ZwY-11">
          <mxGeometry relative="1" as="geometry" />
        </mxCell>
        <mxCell id="B0KQMfuUmQHjHjp3Nqz5-1" value="&lt;font style=&quot;font-size: 11px&quot;&gt;导航栏item切换onNavigateLayoutGetFocus&lt;/font&gt;" style="rounded=1;whiteSpace=wrap;html=1;fontSize=11;" parent="1" vertex="1">
          <mxGeometry x="200" y="300" width="160" height="60" as="geometry" />
        </mxCell>
        <mxCell id="B0KQMfuUmQHjHjp3Nqz5-2" value="&lt;font style=&quot;font-size: 11px&quot;&gt;修改背景&lt;/font&gt;" style="rounded=1;whiteSpace=wrap;html=1;strokeWidth=1;" parent="1" vertex="1">
          <mxGeometry x="350" y="1078" width="75" height="40" as="geometry" />
        </mxCell>
        <mxCell id="U5Bep6wKffa9dp4y0ZwY-1" value="&lt;font style=&quot;font-size: 11px;&quot;&gt;Block落焦&lt;/font&gt;" style="rounded=1;whiteSpace=wrap;html=1;fontSize=11;" vertex="1" parent="1">
          <mxGeometry x="445" y="300" width="135" height="60" as="geometry" />
        </mxCell>
        <mxCell id="U5Bep6wKffa9dp4y0ZwY-3" style="edgeStyle=orthogonalEdgeStyle;rounded=0;orthogonalLoop=1;jettySize=auto;html=1;entryX=0.5;entryY=0;entryDx=0;entryDy=0;fontSize=18;" edge="1" parent="1" source="U5Bep6wKffa9dp4y0ZwY-2" target="B0KQMfuUmQHjHjp3Nqz5-1">
          <mxGeometry relative="1" as="geometry" />
        </mxCell>
        <mxCell id="U5Bep6wKffa9dp4y0ZwY-4" style="edgeStyle=orthogonalEdgeStyle;rounded=0;orthogonalLoop=1;jettySize=auto;html=1;entryX=0.5;entryY=0;entryDx=0;entryDy=0;fontSize=18;" edge="1" parent="1" source="U5Bep6wKffa9dp4y0ZwY-2" target="U5Bep6wKffa9dp4y0ZwY-1">
          <mxGeometry relative="1" as="geometry" />
        </mxCell>
        <mxCell id="U5Bep6wKffa9dp4y0ZwY-2" value="&lt;font style=&quot;font-size: 10px&quot;&gt;落焦&lt;/font&gt;" style="rounded=1;whiteSpace=wrap;html=1;" vertex="1" parent="1">
          <mxGeometry x="340" y="180" width="70" height="40" as="geometry" />
        </mxCell>
        <mxCell id="U5Bep6wKffa9dp4y0ZwY-9" style="edgeStyle=orthogonalEdgeStyle;rounded=0;orthogonalLoop=1;jettySize=auto;html=1;fontSize=11;exitX=1;exitY=0.5;exitDx=0;exitDy=0;" edge="1" parent="1" source="U5Bep6wKffa9dp4y0ZwY-11" target="U5Bep6wKffa9dp4y0ZwY-13">
          <mxGeometry relative="1" as="geometry">
            <Array as="points">
              <mxPoint x="242" y="499" />
              <mxPoint x="170" y="499" />
              <mxPoint x="170" y="751" />
            </Array>
          </mxGeometry>
        </mxCell>
        <mxCell id="U5Bep6wKffa9dp4y0ZwY-19" style="edgeStyle=orthogonalEdgeStyle;rounded=0;orthogonalLoop=1;jettySize=auto;html=1;entryX=0.5;entryY=0;entryDx=0;entryDy=0;fontSize=11;" edge="1" parent="1" source="U5Bep6wKffa9dp4y0ZwY-8" target="U5Bep6wKffa9dp4y0ZwY-11">
          <mxGeometry relative="1" as="geometry" />
        </mxCell>
        <mxCell id="U5Bep6wKffa9dp4y0ZwY-8" value="&lt;font style=&quot;font-size: 11px&quot;&gt;导航栏icon更新updateNavigateIcon&lt;/font&gt;" style="rounded=1;whiteSpace=wrap;html=1;fontSize=11;" vertex="1" parent="1">
          <mxGeometry x="20" y="300" width="135" height="60" as="geometry" />
        </mxCell>
        <mxCell id="U5Bep6wKffa9dp4y0ZwY-11" value="&lt;font style=&quot;font-size: 11px;&quot;&gt;onPageChanged&lt;/font&gt;" style="rounded=1;whiteSpace=wrap;html=1;fontSize=11;" vertex="1" parent="1">
          <mxGeometry x="102" y="479" width="140" height="60" as="geometry" />
        </mxCell>
        <mxCell id="U5Bep6wKffa9dp4y0ZwY-20" style="edgeStyle=orthogonalEdgeStyle;rounded=0;orthogonalLoop=1;jettySize=auto;html=1;fontSize=11;" edge="1" parent="1" source="U5Bep6wKffa9dp4y0ZwY-12">
          <mxGeometry relative="1" as="geometry">
            <mxPoint x="-10" y="720" as="targetPoint" />
            <Array as="points">
              <mxPoint x="-110" y="650" />
            </Array>
          </mxGeometry>
        </mxCell>
        <mxCell id="U5Bep6wKffa9dp4y0ZwY-12" value="版面刷新&lt;br&gt;onPagePluginUIRefresh" style="rounded=1;whiteSpace=wrap;html=1;fontSize=11;strokeWidth=1;" vertex="1" parent="1">
          <mxGeometry x="-180" y="300" width="130" height="60" as="geometry" />
        </mxCell>
        <mxCell id="U5Bep6wKffa9dp4y0ZwY-13" value="&lt;span style=&quot;background-color: rgb(255 , 255 , 255)&quot;&gt;Handler发HOME_BG_CHANGE_BY_BLOCK_FOCUS消息&lt;/span&gt;" style="rounded=1;whiteSpace=wrap;html=1;fontSize=11;strokeWidth=1;" vertex="1" parent="1">
          <mxGeometry x="-130" y="721" width="221" height="60" as="geometry" />
        </mxCell>
      </root>
    </mxGraphModel>
  </diagram>
</mxfile>
